<?xml version="1.0" encoding="UTF-8" standalone="no"?>
<svg
   id="Layer_1"
   data-name="Layer 1"
   viewBox="0 0 59.982998 60"
   version="1.1"
   sodipodi:docname="neurogears_logo5.svg"
   width="59.982998"
   height="60"
   inkscape:version="1.4.4 (dcaf3e7d9e, 2026-05-05)"
   xmlns:inkscape="http://www.inkscape.org/namespaces/inkscape"
   xmlns:sodipodi="http://sodipodi.sourceforge.net/DTD/sodipodi-0.dtd"
   xmlns="http://www.w3.org/2000/svg"
   xmlns:svg="http://www.w3.org/2000/svg"
   xmlns:rdf="http://www.w3.org/1999/02/22-rdf-syntax-ns#"
   xmlns:cc="http://creativecommons.org/ns#"
   xmlns:dc="http://purl.org/dc/elements/1.1/">
  <metadata
     id="metadata63">
    <rdf:RDF>
      <cc:Work
         rdf:about="">
        <dc:format>image/svg+xml</dc:format>
        <dc:type
           rdf:resource="http://purl.org/dc/dcmitype/StillImage" />
      </cc:Work>
    </rdf:RDF>
  </metadata>
  <sodipodi:namedview
     pagecolor="#ffffff"
     bordercolor="#666666"
     borderopacity="1"
     objecttolerance="10"
     gridtolerance="10"
     guidetolerance="10"
     inkscape:pageopacity="0"
     inkscape:pageshadow="2"
     inkscape:window-width="2648"
     inkscape:window-height="1461"
     id="namedview61"
     showgrid="false"
     fit-margin-top="0"
     fit-margin-left="0"
     fit-margin-right="0"
     fit-margin-bottom="0"
     inkscape:zoom="1.6158084"
     inkscape:cx="180.40505"
     inkscape:cy="42.084198"
     inkscape:window-x="0"
     inkscape:window-y="0"
     inkscape:window-maximized="1"
     inkscape:current-layer="Layer_1"
     inkscape:showpageshadow="2"
     inkscape:pagecheckerboard="0"
     inkscape:deskcolor="#d1d1d1" />
  <defs
     id="defs4">
    <style
       id="style2">.cls-1{fill:#141212;}.cls-2,.cls-4{fill:none;stroke:#141212;stroke-miterlimit:10;}.cls-3{fill:#fff;}.cls-4{stroke-width:7px;}.cls-5{fill:#64bb90;}.cls-6{fill:#048e66;}.cls-7{fill:#231f20;}</style>
  </defs>
  <g
     id="g1"
     transform="matrix(0.41666666,0,0,0.41666666,4.9985842,5.0000006)">
    <path
       id="path26"
       d="M 24.367661,13.446809 A 10.968511,10.968511 0 1 1 13.405959,2.4782981 10.961702,10.961702 0 0 1 24.367661,13.446809 Z"
       class="cls-2"
       inkscape:connector-curvature="0"
       style="fill:none;stroke:#141212;stroke-width:0.680851;stroke-miterlimit:10" />
    <path
       id="path28"
       d="M 117.58298,13.35149 A 10.968511,10.968511 0 1 1 106.61447,2.382979 10.968511,10.968511 0 0 1 117.58298,13.35149 Z"
       class="cls-2"
       inkscape:connector-curvature="0"
       style="fill:none;stroke:#141212;stroke-width:0.680851;stroke-miterlimit:10" />
    <path
       id="path30"
       d="M 102.06638,13.35149 A 10.968511,10.968511 0 1 1 91.097873,2.382979 10.968511,10.968511 0 0 1 102.06638,13.35149 Z"
       class="cls-2"
       inkscape:connector-curvature="0"
       style="fill:none;stroke:#141212;stroke-width:0.680851;stroke-miterlimit:10" />
    <path
       id="path32"
       d="M 70.95149,60.105532 A 10.968511,10.968511 0 1 1 59.98298,49.137021 10.968511,10.968511 0 0 1 70.95149,60.105532 Z"
       class="cls-2"
       inkscape:connector-curvature="0"
       style="fill:none;stroke:#141212;stroke-width:0.680851;stroke-miterlimit:10" />
    <path
       id="path34"
       d="m 117.58298,28.868085 a 10.968511,10.968511 0 1 1 -10.96851,-10.96851 10.968511,10.968511 0 0 1 10.96851,10.96851 z"
       class="cls-2"
       inkscape:connector-curvature="0"
       style="fill:none;stroke:#141212;stroke-width:0.680851;stroke-miterlimit:10" />
    <path
       id="path36"
       d="M 2.3829799,106.62128 A 10.968511,10.968511 0 1 1 13.35149,117.61702 10.968511,10.968511 0 0 1 2.3829799,106.62128 Z"
       class="cls-2"
       inkscape:connector-curvature="0"
       style="fill:none;stroke:#141212;stroke-width:0.680851;stroke-miterlimit:10" />
    <path
       id="path38"
       d="M 17.92681,106.62128 A 10.968511,10.968511 0 1 1 28.868086,117.61702 10.968511,10.968511 0 0 1 17.92681,106.62128 Z"
       class="cls-2"
       inkscape:connector-curvature="0"
       style="fill:none;stroke:#141212;stroke-width:0.680851;stroke-miterlimit:10" />
    <path
       id="path40"
       d="M 95.625533,106.7983 A 10.968511,10.968511 0 1 1 106.59404,117.76681 10.975319,10.975319 0 0 1 95.625533,106.7983 Z"
       class="cls-2"
       inkscape:connector-curvature="0"
       style="fill:none;stroke:#141212;stroke-width:0.680851;stroke-miterlimit:10" />
    <path
       id="path42"
       d="M 2.3829799,91.104681 A 10.968511,10.968511 0 1 1 13.35149,102.07319 10.968511,10.968511 0 0 1 2.3829799,91.104681 Z"
       class="cls-2"
       inkscape:connector-curvature="0"
       style="fill:none;stroke:#141212;stroke-width:0.680851;stroke-miterlimit:10" />
    <path
       id="path44"
       d="m 117.58298,13.371915 v 93.228935 a 10.988936,10.988936 0 0 1 -10.98894,11.01617 H 13.365107 A 10.982128,10.982128 0 0 1 2.3829799,106.63489 V 13.371915 A 10.988936,10.988936 0 0 1 13.365107,2.382979 h 93.228933 a 10.988936,10.988936 0 0 1 10.98894,10.988936"
       class="cls-3"
       inkscape:connector-curvature="0"
       style="fill:#ffffff;stroke-width:0.680851" />
    <rect
       id="rect46"
       rx="10.988935"
       height="115.2"
       width="115.2"
       y="2.3829789"
       x="2.3829787"
       class="cls-4"
       style="fill:none;stroke:#141212;stroke-width:4.76596px;stroke-miterlimit:10" />
    <path
       id="path48"
       d="M 98.825533,21.140426 21.133618,98.83234 C 14.216171,105.74979 2.3829799,100.87489 2.3829799,91.06383 V 13.371915 A 10.988936,10.988936 0 0 1 13.365107,2.382979 h 77.691915 c 9.790638,0 14.692768,11.833191 7.768511,18.757447"
       class="cls-5"
       inkscape:connector-curvature="0"
       style="fill:#64bb90;stroke-width:0.680851" />
    <path
       id="path50"
       d="M 98.825533,21.140426 21.133618,98.83234 C 14.216171,105.74979 2.3829799,100.87489 2.3829799,91.06383 V 13.371915 A 10.988936,10.988936 0 0 1 13.365107,2.382979 h 77.691915 c 9.790638,0 14.699578,11.833191 7.768511,18.757447 z"
       class="cls-4"
       inkscape:connector-curvature="0"
       style="fill:none;stroke:#141212;stroke-width:4.76596px;stroke-miterlimit:10" />
    <path
       id="path52"
       d="m 117.58298,28.908936 v 77.691914 a 10.988936,10.988936 0 0 1 -10.98894,11.01617 H 28.902129 c -9.78383,0 -14.685958,-11.82638 -7.768511,-18.750637 L 98.825533,21.140426 c 6.924257,-6.924256 18.757447,-2.042554 18.757447,7.76851"
       class="cls-6"
       inkscape:connector-curvature="0"
       style="fill:#048e66;stroke-width:0.680851" />
    <path
       id="path54"
       d="m 117.58298,28.908936 v 77.691914 a 10.988936,10.988936 0 0 1 -10.98894,11.01617 H 28.902129 c -9.78383,0 -14.685958,-11.82638 -7.768511,-18.750637 L 98.825533,21.140426 c 6.931067,-6.924256 18.757447,-2.022128 18.757447,7.76851 z"
       class="cls-4"
       inkscape:connector-curvature="0"
       style="fill:none;stroke:#141212;stroke-width:4.76596px;stroke-miterlimit:10" />
    <path
       id="path56"
       d="M 59.98298,92.677447 A 32.571915,32.571915 0 1 1 92.554894,60.105532 32.605957,32.605957 0 0 1 59.98298,92.677447"
       class="cls-3"
       inkscape:connector-curvature="0"
       style="fill:#ffffff;stroke-width:0.680851" />
    <path
       id="path58"
       d="M 59.98298,31.387234 A 28.718298,28.718298 0 1 1 31.264682,60.105532 28.725106,28.725106 0 0 1 59.98298,31.387234 m 0,-7.714042 A 36.43234,36.43234 0 1 0 96.408511,60.105532 36.473191,36.473191 0 0 0 59.98298,23.659575"
       class="cls-7"
       inkscape:connector-curvature="0"
       style="fill:#231f20;stroke-width:0.680851" />
  </g>
</svg>
